<svg width="58" height="58" viewBox="0 0 58 58" fill="none" xmlns="http://www.w3.org/2000/svg">
<g clip-path="url(#clip0_119_629)">
<path d="M8.64286 0.5C6.48324 0.5 4.41207 1.35791 2.88499 2.88499C1.35791 4.41207 0.5 6.48324 0.5 8.64286V16.7857C0.5 18.9453 1.35791 21.0165 2.88499 22.5436C4.41207 24.0707 6.48324 24.9286 8.64286 24.9286H16.7857C18.9453 24.9286 21.0165 24.0707 22.5436 22.5436C24.0707 21.0165 24.9286 18.9453 24.9286 16.7857V8.64286C24.9286 6.48324 24.0707 4.41207 22.5436 2.88499C21.0165 1.35791 18.9453 0.5 16.7857 0.5H8.64286ZM8.64286 33.0714C6.48324 33.0714 4.41207 33.9293 2.88499 35.4564C1.35791 36.9835 0.5 39.0547 0.5 41.2143V49.3571C0.5 51.5168 1.35791 53.5879 2.88499 55.115C4.41207 56.6421 6.48324 57.5 8.64286 57.5H16.7857C18.9453 57.5 21.0165 56.6421 22.5436 55.115C24.0707 53.5879 24.9286 51.5168 24.9286 49.3571V41.2143C24.9286 39.0547 24.0707 36.9835 22.5436 35.4564C21.0165 33.9293 18.9453 33.0714 16.7857 33.0714H8.64286ZM33.0714 8.64286C33.0714 6.48324 33.9293 4.41207 35.4564 2.88499C36.9835 1.35791 39.0547 0.5 41.2143 0.5H49.3571C51.5168 0.5 53.5879 1.35791 55.115 2.88499C56.6421 4.41207 57.5 6.48324 57.5 8.64286V16.7857C57.5 18.9453 56.6421 21.0165 55.115 22.5436C53.5879 24.0707 51.5168 24.9286 49.3571 24.9286H41.2143C39.0547 24.9286 36.9835 24.0707 35.4564 22.5436C33.9293 21.0165 33.0714 18.9453 33.0714 16.7857V8.64286ZM45.2857 33.0714C46.3655 33.0714 47.4011 33.5004 48.1646 34.2639C48.9282 35.0275 49.3571 36.063 49.3571 37.1429V41.2143H53.4286C54.5084 41.2143 55.544 41.6432 56.3075 42.4068C57.0711 43.1703 57.5 44.2059 57.5 45.2857C57.5 46.3655 57.0711 47.4011 56.3075 48.1646C55.544 48.9282 54.5084 49.3571 53.4286 49.3571H49.3571V53.4286C49.3571 54.5084 48.9282 55.544 48.1646 56.3075C47.4011 57.0711 46.3655 57.5 45.2857 57.5C44.2059 57.5 43.1703 57.0711 42.4068 56.3075C41.6432 55.544 41.2143 54.5084 41.2143 53.4286V49.3571H37.1429C36.063 49.3571 35.0275 48.9282 34.2639 48.1646C33.5004 47.4011 33.0714 46.3655 33.0714 45.2857C33.0714 44.2059 33.5004 43.1703 34.2639 42.4068C35.0275 41.6432 36.063 41.2143 37.1429 41.2143H41.2143V37.1429C41.2143 36.063 41.6432 35.0275 42.4068 34.2639C43.1703 33.5004 44.2059 33.0714 45.2857 33.0714Z" fill="#AD1457"/>
</g>
<defs>
<clipPath id="clip0_119_629">
<rect width="57" height="57" fill="white" transform="translate(0.5 0.5)"/>
</clipPath>
</defs>
</svg>
