<svg width="33" height="32" viewBox="0 0 33 32" fill="none" xmlns="http://www.w3.org/2000/svg">
<g clip-path="url(#clip0_134_291)">
<path d="M32.188 16.3683C32.188 15.2807 32.0998 14.1872 31.9117 13.1172H16.82V19.2785H25.4623C25.1037 21.2656 23.9514 23.0235 22.2641 24.1405V28.1383H27.4201C30.4478 25.3516 32.188 21.2362 32.188 16.3683Z" fill="#4285F4"/>
<path d="M16.82 32.0009C21.1352 32.0009 24.7744 30.5841 27.4259 28.1384L22.2699 24.1406C20.8354 25.1165 18.9835 25.6691 16.8259 25.6691C12.6517 25.6691 9.11246 22.853 7.84257 19.0669H2.52197V23.1882C5.23812 28.5911 10.7704 32.0009 16.82 32.0009Z" fill="#34A853"/>
<path d="M7.83673 19.0671C7.16651 17.08 7.16651 14.9282 7.83673 12.9411V8.81982H2.52201C0.252673 13.3409 0.252673 18.6673 2.52201 23.1884L7.83673 19.0671Z" fill="#FBBC04"/>
<path d="M16.82 6.33288C19.1011 6.29761 21.3057 7.15596 22.9578 8.73156L27.5258 4.16349C24.6333 1.44734 20.7943 -0.0459547 16.82 0.00107822C10.7704 0.00107822 5.23812 3.41096 2.52197 8.81974L7.83669 12.941C9.1007 9.14897 12.6458 6.33288 16.82 6.33288Z" fill="#EA4335"/>
</g>
<defs>
<clipPath id="clip0_134_291">
<rect width="32" height="32" fill="white" transform="translate(0.5)"/>
</clipPath>
</defs>
</svg>
