<svg width="59" height="58" viewBox="0 0 59 58" fill="none" xmlns="http://www.w3.org/2000/svg">
<path d="M47.298 21.8001C49.4909 21.8002 51.632 21.1326 53.4363 19.8863C55.2407 18.64 56.6229 16.8739 57.3991 14.8229C58.1754 12.772 58.3088 10.5333 57.7818 8.4046C57.2548 6.27592 56.0923 4.35811 54.4488 2.9062C52.8053 1.45429 50.7588 0.537089 48.5814 0.276566C46.404 0.0160432 44.1988 0.424544 42.2592 1.44774C40.3196 2.47095 38.7374 4.06036 37.7231 6.00463C36.7088 7.94889 36.3103 10.1559 36.5808 12.3321L18.7968 21.2241C17.2712 19.753 15.3465 18.7632 13.2625 18.3781C11.1784 17.993 9.02713 18.2295 7.07657 19.0583C5.12601 19.8871 3.4624 21.2715 2.29297 23.039C1.12355 24.8065 0.5 26.879 0.5 28.9983C0.5 31.1176 1.12355 33.1901 2.29297 34.9576C3.4624 36.7251 5.12601 38.1095 7.07657 38.9382C9.02713 39.767 11.1784 40.0036 13.2625 39.6185C15.3465 39.2334 17.2712 38.2436 18.7968 36.7725L36.5808 45.6645C36.2658 48.1925 36.8546 50.7506 38.2432 52.8865C39.6318 55.0224 41.7307 56.5987 44.1691 57.3367C46.6075 58.0748 49.2282 57.9271 51.5682 56.9198C53.9082 55.9125 55.8168 54.1104 56.9566 51.832C58.0965 49.5536 58.3942 46.9456 57.7972 44.4689C57.2001 41.9922 55.7468 39.8064 53.694 38.2976C51.6412 36.7888 49.1211 36.0543 46.5792 36.2238C44.0372 36.3934 41.637 37.4561 39.8028 39.2241L22.0188 30.3321C22.1277 29.4474 22.1277 28.5527 22.0188 27.6681L39.8028 18.7761C41.7396 20.6481 44.382 21.8001 47.298 21.8001Z" fill="#AD1457"/>
</svg>
